<?xml version="1.0" standalone="no"?>
<!DOCTYPE svg PUBLIC "-//W3C//DTD SVG 20010904//EN"
 "http://www.w3.org/TR/2001/REC-SVG-20010904/DTD/svg10.dtd">
<svg version="1.0" xmlns="http://www.w3.org/2000/svg"
 width="512.000000pt" height="512.000000pt" viewBox="0 0 512.000000 512.000000"
 preserveAspectRatio="xMidYMid meet">

<g transform="translate(0.000000,512.000000) scale(0.100000,-0.100000)"
fill="#000000" stroke="none">
<path d="M64 5110 c-12 -4 -31 -21 -43 -36 l-21 -27 0 -1868 0 -1869 29 -32
29 -33 1201 -3 1201 -2 0 -226 c0 -234 3 -255 44 -284 12 -8 300 -176 640
-372 385 -223 630 -358 646 -358 16 0 261 135 646 357 340 197 628 365 640
373 11 8 26 25 32 37 19 34 16 1479 -2 1512 -9 17 -208 137 -612 371 l-599
346 0 69 0 70 145 6 c101 5 157 11 185 23 94 40 145 126 145 248 l0 77 100 72
c144 102 140 95 140 255 l0 134 85 0 c79 0 87 2 117 29 l33 29 3 256 3 256 99
0 c96 0 101 1 132 29 27 24 33 36 33 71 0 35 -6 47 -33 71 -31 28 -36 29 -131
29 l-100 0 -3 171 -3 171 -33 29 -33 30 -515 -3 -516 -3 -29 -33 -29 -32 0
-165 0 -165 -264 0 -265 0 -3 171 -3 171 -33 29 -32 29 -1503 -1 c-826 0
-1512 -4 -1523 -9z m2896 -290 l0 -99 -531 -3 -531 -3 -29 -33 c-38 -42 -38
-82 0 -124 l29 -33 531 -3 531 -3 0 -795 c0 -853 -1 -837 49 -864 25 -13 77
-13 102 0 50 27 49 11 49 865 l0 795 265 0 265 0 0 -250 0 -250 29 -32 c28
-32 32 -33 120 -36 l91 -4 0 -133 c0 -159 -4 -152 140 -255 l101 -72 -3 -66
-3 -67 -145 -6 c-157 -7 -203 -19 -253 -67 -51 -48 -71 -99 -77 -197 l-5 -89
-585 -337 c-322 -186 -596 -346 -610 -357 l-25 -20 -3 -421 -3 -421 -1129 0
-1130 0 0 1740 0 1740 1380 0 1380 0 0 -100z m1690 -285 l0 -385 -380 0 -380
0 0 385 0 385 380 0 380 0 0 -385z m-240 -678 l0 -93 -65 -47 c-36 -26 -70
-47 -75 -47 -5 0 -39 21 -75 47 l-65 47 0 93 0 93 140 0 140 0 0 -93z m-123
-1319 c268 -154 496 -287 507 -294 16 -11 11 -17 -64 -60 -93 -54 -110 -74
-110 -126 0 -48 33 -87 82 -95 31 -5 49 2 120 42 46 26 86 50 91 52 4 2 7
-265 7 -594 l-1 -598 -504 -290 c-277 -159 -509 -291 -514 -293 -8 -3 -10 171
-9 593 l3 597 95 54 c52 30 107 68 123 85 38 41 37 90 -2 130 -45 44 -77 39
-203 -31 -59 -33 -112 -60 -118 -60 -11 0 -964 544 -1003 572 -16 12 38 46
485 305 277 160 508 292 515 292 6 1 231 -126 500 -281z m-1087 -786 l485
-279 3 -598 c1 -422 -1 -596 -9 -593 -5 2 -237 134 -514 293 l-504 290 -1 598
0 598 28 -15 c15 -8 245 -140 512 -294z"/>
<path d="M1531 4707 c-95 -55 -40 -206 67 -182 73 16 103 109 51 160 -30 31
-85 41 -118 22z"/>
<path d="M1060 4081 c-347 -200 -490 -288 -502 -308 -17 -26 -18 -73 -18 -593
0 -520 1 -567 18 -593 12 -20 155 -108 502 -308 388 -223 491 -279 520 -279
29 0 132 56 520 279 347 200 490 288 502 308 17 26 18 73 18 593 0 520 -1 567
-18 593 -12 20 -155 108 -502 308 -388 223 -491 279 -520 279 -29 0 -132 -56
-520 -279z m453 -258 c20 -21 37 -28 67 -28 30 0 47 7 68 28 26 26 27 33 32
147 l5 119 318 -183 317 -183 -314 -182 c-173 -99 -317 -181 -320 -181 -3 0
-6 34 -6 75 0 86 -15 125 -55 143 -51 23 -107 7 -131 -39 -8 -17 -14 -58 -14
-104 0 -41 -3 -75 -6 -75 -3 0 -147 82 -320 181 l-314 182 317 183 318 183 5
-119 c5 -114 6 -121 33 -147z m-205 -601 c34 -20 62 -39 62 -42 0 -4 -28 -22
-61 -41 -34 -19 -70 -45 -80 -58 -28 -35 -24 -85 9 -120 43 -48 68 -48 157 -1
42 22 79 39 81 37 3 -2 3 -166 2 -365 l-3 -361 -318 183 -318 184 99 56 c142
81 161 102 147 172 -7 39 -52 74 -95 74 -14 0 -76 -29 -137 -64 l-113 -65 0
369 0 369 253 -146 c138 -80 280 -161 315 -181z m1112 -41 l0 -369 -87 49
c-49 27 -100 49 -115 49 -39 0 -87 -47 -94 -90 -8 -48 19 -80 117 -137 l79
-46 -317 -183 -318 -183 -3 361 c-1 199 0 363 2 366 3 2 45 -19 93 -47 126
-72 188 -67 214 18 18 60 -4 91 -111 153 -50 29 -90 55 -90 58 0 4 612 364
628 369 1 1 2 -165 2 -368z"/>
<path d="M4321 1947 c-95 -55 -40 -206 67 -182 73 16 103 109 51 160 -30 31
-85 41 -118 22z"/>
</g>
</svg>
