<?xml version="1.0" standalone="no"?>
<!DOCTYPE svg PUBLIC "-//W3C//DTD SVG 20010904//EN"
 "http://www.w3.org/TR/2001/REC-SVG-20010904/DTD/svg10.dtd">
<svg version="1.0" xmlns="http://www.w3.org/2000/svg"
 width="512.000000pt" height="512.000000pt" viewBox="0 0 512.000000 512.000000"
 preserveAspectRatio="xMidYMid meet">

<g transform="translate(0.000000,512.000000) scale(0.100000,-0.100000)"
fill="#000000" stroke="none">
<path d="M268 4852 l-268 -267 0 -2268 0 -2268 25 -24 24 -25 449 0 c553 0
502 -17 502 171 l0 129 1560 0 1560 0 0 -129 c0 -188 -51 -171 502 -171 l449
0 24 25 25 24 0 2268 0 2268 -268 267 -267 268 -277 0 c-255 0 -278 -1 -299
-19 -32 -26 -32 -86 0 -112 21 -17 44 -19 270 -19 l246 0 223 -223 222 -222 0
-2188 0 -2187 -350 0 -350 0 0 115 c0 120 -12 166 -45 179 -22 8 -3308 8
-3330 0 -33 -13 -45 -59 -45 -179 l0 -115 -350 0 -350 0 0 2188 0 2187 223
223 222 222 1591 0 1591 0 27 21 c36 28 36 80 0 108 l-27 21 -1621 0 -1621 0
-267 -268z"/>
<path d="M1060 4829 c-20 -11 -47 -37 -60 -56 -24 -36 -25 -41 -28 -257 -4
-239 1 -274 45 -327 40 -47 79 -59 192 -59 96 0 100 1 120 26 26 33 27 65 2
95 -17 21 -30 25 -113 29 l-93 5 0 205 0 205 653 3 652 2 -2 -207 -3 -208
-443 -5 -444 -5 -19 -24 c-26 -32 -24 -67 6 -96 l24 -25 453 0 c451 0 453 0
493 23 22 12 50 40 62 62 23 39 23 46 21 286 l-3 246 -28 36 c-54 71 -12 67
-769 67 -670 0 -684 -1 -718 -21z"/>
<path d="M3675 4832 c-211 -73 -313 -314 -221 -519 35 -76 112 -153 193 -191
50 -23 71 -27 153 -27 87 0 101 3 161 32 262 129 295 486 60 654 -30 22 -77
46 -105 54 -67 20 -179 19 -241 -3z m213 -148 c158 -65 191 -276 61 -387 -115
-99 -298 -59 -360 77 -38 83 -17 195 47 260 62 62 171 84 252 50z"/>
<path d="M2832 4637 c-36 -38 -28 -88 19 -112 34 -18 225 -21 262 -4 24 11 47
47 47 73 0 7 -9 25 -21 40 -20 26 -22 26 -153 26 -126 0 -134 -1 -154 -23z"/>
<path d="M1323 4560 c-32 -13 -56 -54 -48 -82 15 -48 33 -58 110 -58 62 0 74
3 93 23 36 38 28 88 -19 112 -31 16 -101 19 -136 5z"/>
<path d="M1623 4560 c-46 -19 -57 -83 -20 -118 23 -22 29 -22 330 -22 294 0
308 1 327 20 25 25 26 71 1 101 l-19 24 -299 2 c-164 1 -308 -2 -320 -7z"/>
<path d="M2835 4405 c-14 -13 -25 -36 -25 -50 0 -14 11 -37 25 -50 23 -24 30
-25 150 -25 120 0 127 1 150 25 14 13 25 36 25 50 0 14 -11 37 -25 50 -23 24
-30 25 -150 25 -120 0 -127 -1 -150 -25z"/>
<path d="M590 3895 l-105 -105 0 -1109 c0 -1076 1 -1110 19 -1130 22 -25 73
-28 102 -7 18 14 19 37 24 768 l5 753 264 3 264 2 -65 -64 c-100 -99 -135
-194 -109 -292 16 -59 72 -128 127 -154 57 -28 121 -24 239 14 111 36 138 34
210 -14 131 -87 250 -105 355 -53 l57 28 25 -27 c23 -26 32 -28 97 -28 l71 0
0 -125 c0 -120 1 -127 25 -150 31 -32 69 -32 100 0 24 23 25 30 25 150 l0 125
68 0 c97 0 104 7 153 160 l40 130 69 0 c80 0 113 12 129 47 6 13 11 76 11 139
l0 114 848 -2 847 -3 3 -1030 2 -1029 -62 -63 -62 -63 -128 0 -128 0 0 464 c0
297 -4 475 -10 492 -21 55 -68 69 -114 33 l-26 -20 0 -485 0 -484 -209 0 -209
0 -4 93 c-2 77 -7 97 -26 125 -43 60 -84 72 -237 72 l-135 0 0 128 0 129 -77
111 c-43 61 -87 115 -98 121 -25 13 -538 131 -569 131 -24 0 -380 -303 -403
-344 -8 -13 -12 -67 -13 -148 l0 -128 -135 0 c-153 0 -194 -12 -237 -72 -19
-28 -24 -48 -26 -125 l-4 -93 -209 0 -209 0 0 484 0 485 -26 20 c-46 36 -94
23 -113 -30 -7 -22 -11 -183 -11 -495 l0 -464 -128 0 -128 0 -62 63 -62 63 0
161 c0 141 -2 164 -18 184 -25 30 -75 30 -105 0 -21 -21 -22 -29 -22 -217 l0
-195 106 -104 106 -105 1863 0 1863 0 106 105 106 104 0 1425 0 1426 -105 105
-105 105 -1865 0 -1865 0 -105 -105z m1580 -215 l0 -170 -210 0 c-211 0 -211
0 -235 -25 -24 -23 -25 -30 -25 -145 l0 -120 -535 0 -535 0 0 252 0 252 62 63
62 63 708 0 708 0 0 -170z m2257 108 l63 -62 0 -253 0 -253 -849 0 -849 0 -4
126 c-4 173 11 164 -259 164 l-209 0 0 170 0 170 1022 0 1022 0 63 -62z
m-1787 -648 l0 -220 -395 0 -395 0 0 220 0 220 395 0 395 0 0 -220z m-940
-185 c0 -63 5 -125 11 -138 16 -35 49 -47 129 -47 l69 0 7 -37 c6 -33 4 -39
-29 -70 -62 -56 -142 -45 -262 37 -87 59 -184 64 -324 16 -91 -32 -114 -32
-141 -4 -45 49 -38 98 22 164 52 56 113 101 208 153 l75 41 118 0 117 0 0
-115z m720 -193 c0 -4 -9 -36 -21 -70 l-21 -62 -133 0 -133 0 -21 62 c-12 34
-21 66 -21 70 0 4 79 8 175 8 96 0 175 -4 175 -8z m246 -1183 c120 -28 219
-51 220 -52 1 -1 24 -34 53 -73 l51 -72 0 -106 0 -106 -430 0 -430 0 0 104 0
104 143 125 c78 69 149 126 158 126 8 1 114 -22 235 -50z m724 -629 l0 -70
-830 0 -830 0 0 70 0 70 830 0 830 0 0 -70z"/>
</g>
</svg>
